# xmcd
#
# Track frame offsets:
#	150
#	23272
#	40199
#	56695
#	74641
#	95927
#	116067
#	140417
#	152172
#	170081
#	184841
#	196896
#	217763
#	237682
#	258196
#
# Disc length: 3711 seconds
#
# Revision: 1
# Processed by: cddbd v1.5.1PL2 Copyright (c) Steve Scherf et al.
# Submitted via: audiograbber 1.83.01
#
DISCID=db0e7d0f
DTITLE=Románcok - Csak te érted
DYEAR=1900
DGENRE=Pop
TTITLE0=Csak te érted
TTITLE1=Mond miért szeretsz te mást
TTITLE2=Egyedül álmodom
TTITLE3=Fekete haju
TTITLE4=Már feledném
TTITLE5=Ujra érzem
TTITLE6=Ezeregy éjszaka
TTITLE7=Had legyek ma éjjel szerelmes beléd
TTITLE8=Ha nem szeretsz már
TTITLE9=Te miattad nem alszom
TTITLE10=Én nem tartozom senkihez
TTITLE11=Szeress nagyon
TTITLE12=Mi ez az érzés
TTITLE13=Galambok szállank
TTITLE14=Nélküled az élet gyötrelem
EXTD=
EXTT0=
EXTT1=
EXTT2=
EXTT3=
EXTT4=
EXTT5=
EXTT6=
EXTT7=
EXTT8=
EXTT9=
EXTT10=
EXTT11=
EXTT12=
EXTT13=
EXTT14=
PLAYORDER=
